Coordinates
version=1
nRows=4
nColumns=107
inDegrees=yes

Units are S.I. units (second, meters, Newtons, ...)
If the header above contains a line with 'inDegrees', this indicates whether rotational values are in degrees (yes) or radians (no).

endheader
time	sternoclavicular_r2	sternoclavicular_r3	unrotscap_r3	unrotscap_r2	acromioclavicular_r2	acromioclavicular_r3	acromioclavicular_r1	unrothum_r1	unrothum_r3	unrothum_r2	elv_angle	shoulder_elv	shoulder1_r2	shoulder_rot	elbow_flexion	pro_sup	deviation	flexion	proximal_distal_r1	proximal_distal_r3	cmc_flexion	cmc_abduction	mp_flexion	ip_flexion	mcp2_flexion	mcp2_abduction	pm2_flexion	md2_flexion	mcp3_flexion	mcp3_abduction	pm3_flexion	md3_flexion	mcp4_flexion	mcp4_abduction	pm4_flexion	md4_flexion	mcp5_flexion	mcp5_abduction	pm5_flexion	md5_flexion	bicpt_tx	bicpt_ty	bicpt_tz	bicpt2_tx	bicpt2_ty	bicpt2_tz	ptpt_tx	ptpt_ty	ptpt_tz	FCUpt_tx	FCUpt_ty	FCUpt_tz	EDCpt_tx	EDCpt_ty	EDCpt_tz	APLpt_tx	APLpt_ty	APLpt_tz	FPLpt_tx	FPLpt_ty	FPLpt_tz	FPLpt2_tx	FPLpt2_ty	FPLpt2_tz	PEC1pt2_tx	PEC1pt2_ty	PEC1pt2_tz	PEC1pt3_tx	PEC1pt3_ty	PEC1pt3_tz	PEC2pt2_tx	PEC2pt2_ty	PEC2pt2_tz	PEC2pt3_tx	PEC2pt3_ty	PEC2pt3_tz	PEC3pt2_tx	PEC3pt2_ty	PEC3pt2_tz	PEC3pt3_tx	PEC3pt3_ty	PEC3pt3_tz	DELT2pt2a_tx	DELT2pt2a_ty	DELT2pt2a_tz	DELT2pt2_tx	DELT2pt2_ty	DELT2pt2_tz	LAT1pt2_tx	LAT1pt2_ty	LAT1pt2_tz	LAT1pt3_tx	LAT1pt3_ty	LAT1pt3_tz	LAT2pt2_tx	LAT2pt2_ty	LAT2pt2_tz	LAT2pt3_tx	LAT2pt3_ty	LAT2pt3_tz	LAT3pt2_tx	LAT3pt2_ty	LAT3pt2_tz	LAT3pt3_tx	LAT3pt3_ty	LAT3pt3_tz
      1.86666667	     -0.30805404	      0.13047715	     -0.13047715	      0.30805404	     -0.06237468	      0.50409020	      0.22658508	     -0.22658508	     -0.50409020	      0.06237468	    103.07510850	     72.93453272	     -1.79900002	    -43.73485298	     31.72382957	     88.13770913	      0.38441562	     -0.11396308	      0.40075096	     -0.05698154	     20.35914615	      3.37287250	    -19.39931605	      4.58521405	     26.53963736	      4.00239367	     24.31911049	     15.79948676	     23.47221345	     -1.92870785	     29.58916417	     25.67268444	     18.37240106	    -10.36143517	     28.64985158	     26.79364561	      9.50129595	    -14.26322057	     34.99896734	      5.30843562	      0.00094933	     -0.03123604	     -0.00488567	      0.01401371	     -0.01881793	     -0.00070676	      0.00103762	     -0.06911101	     -0.00714997	      0.01298428	     -0.18216469	      0.00014440	     -0.01057650	      0.00369603	     -0.00082710	      0.00010573	      0.00004229	      0.00021146	      0.00013533	      0.00040600	      0.00022837	      0.00001094	     -0.00027871	     -0.00033445	      0.00239063	      0.00838748	      0.00583477	     -0.00782021	      0.01888196	     -0.01790949	      0.00239063	      0.00838748	      0.00583477	      0.00052675	      0.01750430	     -0.00919786	      0.00382366	      0.00466417	      0.01565587	      0.00000000	      0.00711002	      0.00000000	     -0.00684775	     -0.03164551	     -0.00585851	      0.02370504	     -0.00124805	     -0.01517630	     -0.00085090	      0.01426277	     -0.00583477	      0.00235011	      0.02058376	     -0.01701807	     -0.00571321	      0.01235836	     -0.00522698	     -0.01191265	      0.02609438	     -0.02921436	     -0.02236661	      0.01381705	     -0.00700982	     -0.01483003	      0.03014630	     -0.03650782
      1.90000000	     -0.30712076	      0.13008186	     -0.13008186	      0.30712076	     -0.06218571	      0.50256301	      0.22589862	     -0.22589862	     -0.50256301	      0.06218571	    103.56452678	     72.71357089	     -1.80754198	    -45.32150719	     31.76331098	     87.91235442	      0.38033885	     -0.08284044	      0.39777027	     -0.04142022	     17.84516902	      4.05637384	    -18.87963547	      5.62736695	     21.99727168	      3.80085831	     20.81682220	     11.65899465	     17.58928291	     -1.89045419	     25.46956277	     23.37589926	     12.14661035	     -9.78274592	     23.14559629	     25.04850281	      2.87750678	    -14.22064574	     30.91049374	      5.34979294	      0.00095063	     -0.03124056	     -0.00488640	      0.01403805	     -0.01882866	     -0.00074599	      0.00105427	     -0.06910025	     -0.00713181	      0.01295825	     -0.18217246	      0.00013785	     -0.01054946	      0.00368352	     -0.00081961	      0.00007902	      0.00003161	      0.00015805	      0.00010115	      0.00030345	      0.00017069	      0.00001712	     -0.00026923	     -0.00032307	      0.00238339	      0.00836207	      0.00581709	     -0.00779652	      0.01882475	     -0.01785524	      0.00238339	      0.00836207	      0.00581709	      0.00052515	      0.01745127	     -0.00917000	      0.00381502	      0.00465004	      0.01563363	      0.00000000	      0.00706675	      0.00000000	     -0.00682700	     -0.03154964	     -0.00582255	      0.02410009	     -0.00130693	     -0.01616815	     -0.00084833	      0.01421955	     -0.00581709	      0.00234299	      0.02052140	     -0.01696651	     -0.00569590	      0.01232092	     -0.00521114	     -0.01187656	      0.02601532	     -0.02912585	     -0.02229885	      0.01377519	     -0.00698859	     -0.01478511	      0.03005497	     -0.03639721
      1.93333333	     -0.30695367	      0.13001109	     -0.13001109	      0.30695367	     -0.06215188	      0.50228959	      0.22577571	     -0.22577571	     -0.50228959	      0.06215188	    103.89885134	     72.67401075	     -1.81337704	    -46.21367979	     31.53434657	     87.59240309	      0.37419028	     -0.08213962	      0.39322300	     -0.04106981	     16.47708746	      4.32349236	    -18.83029754	      6.05024389	     18.08713259	      4.01447742	     18.55125327	      8.98938822	     12.83333574	     -1.74398556	     22.18239140	     21.67343341	      7.16348992	     -9.27768834	     18.83288368	     23.68337616	     -1.62590941	    -14.18108898	     27.58940922	      5.28378271	      0.00094306	     -0.03121432	     -0.00488217	      0.01407241	     -0.01876646	     -0.00080157	      0.00107791	     -0.06908496	     -0.00710604	      0.01292132	     -0.18218345	      0.00012861	     -0.01051106	      0.00366579	     -0.00080904	      0.00007840	      0.00003136	      0.00015679	      0.00010035	      0.00030104	      0.00016934	      0.00002040	     -0.00026110	     -0.00031332	      0.00238209	      0.00835752	      0.00581393	     -0.00779228	      0.01881451	     -0.01784552	      0.00238209	      0.00835752	      0.00581393	      0.00052487	      0.01744178	     -0.00916501	      0.00381348	      0.00464751	      0.01562963	      0.00000000	      0.00705902	      0.00000000	     -0.00682329	     -0.03153247	     -0.00581613	      0.02430751	     -0.00134016	     -0.01673320	     -0.00084786	      0.01421182	     -0.00581393	      0.00234172	      0.02051024	     -0.01695728	     -0.00569280	      0.01231422	     -0.00520831	     -0.01187010	      0.02600117	     -0.02911000	     -0.02228672	      0.01376770	     -0.00698479	     -0.01477706	      0.03003862	     -0.03637741
      1.96666667	     -0.30691634	      0.12999528	     -0.12999528	      0.30691634	     -0.06214432	      0.50222850	      0.22574825	     -0.22574825	     -0.50222850	      0.06214432	    104.03963093	     72.66517156	     -1.81583411	    -46.59056019	     31.49211084	     87.29644624	      0.36978606	     -0.07194076	      0.38992770	     -0.03597038	     14.93123526	      4.43651793	    -18.38271317	      6.67565180	     14.41076150	      4.36621991	     16.85824806	      6.13458426	      8.67997097	     -1.56685326	     19.51003706	     20.03502272	      3.06925286	     -9.03515039	     14.66800055	     22.44505206	     -5.35312276	    -14.13725891	     24.49590435	      5.28026277	      0.00094166	     -0.03120948	     -0.00488139	      0.01410397	     -0.01875499	     -0.00085285	      0.00109978	     -0.06907082	     -0.00708220	      0.01288719	     -0.18219359	      0.00012014	     -0.01047555	      0.00364942	     -0.00079930	      0.00006927	      0.00002771	      0.00013855	      0.00008867	      0.00026601	      0.00014963	      0.00002392	     -0.00024943	     -0.00029932	      0.00238180	      0.00835650	      0.00581322	     -0.00779133	      0.01881222	     -0.01784335	      0.00238180	      0.00835650	      0.00581322	      0.00052480	      0.01743966	     -0.00916389	      0.00381313	      0.00464694	      0.01562874	      0.00000000	      0.00705729	      0.00000000	     -0.00682246	     -0.03152864	     -0.00581469	      0.02439182	     -0.00135423	     -0.01697347	     -0.00084776	      0.01421009	     -0.00581322	      0.00234144	      0.02050774	     -0.01695522	     -0.00569211	      0.01231272	     -0.00520768	     -0.01186865	      0.02599801	     -0.02910646	     -0.02228400	      0.01376602	     -0.00698394	     -0.01477526	      0.03003496	     -0.03637299
